<svg width="27" height="9" viewBox="0 0 27 9" fill="none" xmlns="http://www.w3.org/2000/svg">
<path d="M22.5 8C24.433 8 26 6.433 26 4.5C26 2.567 24.433 1 22.5 1C20.567 1 19 2.567 19 4.5C19 6.433 20.567 8 22.5 8Z" stroke="#A1A3AB"/>
<path d="M13.5 8C15.433 8 17 6.433 17 4.5C17 2.567 15.433 1 13.5 1C11.567 1 10 2.567 10 4.5C10 6.433 11.567 8 13.5 8Z" stroke="#A1A3AB"/>
<path d="M4.5 8C6.433 8 8 6.433 8 4.5C8 2.567 6.433 1 4.5 1C2.567 1 1 2.567 1 4.5C1 6.433 2.567 8 4.5 8Z" stroke="#A1A3AB"/>
</svg>
